<svg id="Group_1417" data-name="Group 1417" xmlns="http://www.w3.org/2000/svg" width="52.154" height="33.962" viewBox="0 0 52.154 33.962">
  <path id="Path_58" data-name="Path 58" d="M1629.726,2097.021a2.542,2.542,0,0,0,1.83-.777l13.908-14.442a2.538,2.538,0,0,0-.067-3.59h0a2.539,2.539,0,0,0-3.591.068h0L1627.9,2092.72a2.539,2.539,0,0,0,1.829,4.3Z" transform="translate(-1627.186 -2077.5)" fill="#fff"/>
  <path id="Path_59" data-name="Path 59" d="M1643.635,2105.55a2.54,2.54,0,0,0,1.828-4.3l-13.906-14.44a2.539,2.539,0,0,0-3.592-.068h0a2.539,2.539,0,0,0-.068,3.591h0l13.908,14.443A2.545,2.545,0,0,0,1643.635,2105.55Z" transform="translate(-1627.187 -2071.588)" fill="#fff"/>
  <path id="Path_60" data-name="Path 60" d="M1610.139,2091.19h46.125a2.54,2.54,0,0,0,0-5.08h-46.125a2.54,2.54,0,1,0,0,5.08Z" transform="translate(-1606.649 -2071.532)" fill="#fff"/>
</svg>
