<svg xmlns="http://www.w3.org/2000/svg" xmlns:xlink="http://www.w3.org/1999/xlink" width="815.532" height="806.937" viewBox="0 0 815.532 806.937">
  <defs>
    <linearGradient id="linear-gradient" x1="0.118" y1="1.047" x2="0.658" y2="0.259" gradientUnits="objectBoundingBox">
      <stop offset="0" stop-color="#c8cacc"/>
      <stop offset="0.141" stop-color="#d4d6d7"/>
      <stop offset="0.382" stop-color="#e4e5e5"/>
      <stop offset="0.571" stop-color="#eaebeb"/>
      <stop offset="0.748" stop-color="#eee"/>
      <stop offset="0.928" stop-color="#fafafa"/>
      <stop offset="0.976" stop-color="#fff"/>
    </linearGradient>
  </defs>
  <path id="Path_5019" data-name="Path 5019" d="M719.362,1535.182V1471.71l-59.872-34.568v67.948l-55.763,32.193v-66.756L544.884,1504.5l-56.792-32.786v-62.285a4.024,4.024,0,0,0,3.006-3.886,3.967,3.967,0,0,0-.156-1.052l54.454-31.437.514-.3v-69.132L487.069,1337.6l-57.821-33.382L371.43,1337.6l-56.79-32.788v-65.571l58.845-33.972L314.64,1171.29v-67.95l-59.359,34.274-.514.294v65.577l-52.912-30.549a3.943,3.943,0,0,0,.156-1.052,4.021,4.021,0,0,0-3.006-3.884V1038.955l57.3-33.086.514-.294V936.439l-59.359,34.272-.514.3v66.766l-56.788,32.788-55.769-32.2,56.28-32.5.514-.294V936.439L81.831,970.711l-.514.3v132.341L28.4,1072.8a3.944,3.944,0,0,0,.156-1.052,4.019,4.019,0,0,0-3.006-3.884v-63.471L-31.237,971.6l55.762-32.192,1.027.594v-1.188l1.027-.594-1.027-.592V870.868l-54.967-31.734a3.958,3.958,0,0,0,.156-1.052,4.033,4.033,0,0,0-4.034-4.034,4.034,4.034,0,0,0-4.034,4.034,4.027,4.027,0,0,0,3.006,3.886v62.283l-58.845,33.974,57.817,33.38L-91.623,1004.1l-.514.3v66.76l-1.027.594,1.027.594V1139.1l56.767,32.774-56.3,32.5-.514.294v69.132l59.361-34.27.514-.294v-65.6l.043.027v-67.948l53.927-31.136a4.028,4.028,0,0,0,1.835,1.046V1139.1l56.79,32.784-56.276,32.49-.514.3v66.789l-53.88,31.108a4.025,4.025,0,0,0-2.863-1.194,4.034,4.034,0,0,0-4.036,4.032,4.023,4.023,0,0,0,3.008,3.886v128.967l-57.4,33.138-.514.3v69.134l.092-.051V1606.4l57.817,33.378v1.188l1.027-.594,1.027.592v-1.186l57.3-33.084.514-.294v-69.136l-55.98,32.322a4.022,4.022,0,0,0-2.863-1.2,4.016,4.016,0,0,0-2.865,1.2l-52.945-30.567,54.782-31.63v.066l58.843-33.972,58.845,33.972v-67.969l57.258-33.057.514-.294v-63.466a4.027,4.027,0,1,0-5.061-3.886,3.958,3.958,0,0,0,.158,1.052l-54.453,31.439-.514.294v65.546L25.6,1404.949V1272.587l56.745-32.76,58.845,33.972v-67.944l53.927-31.132a4.028,4.028,0,0,0,1.835,1.046v63.47l54.967,31.734a3.623,3.623,0,0,0,0,2.1l-54.453,31.438-.514.3v133.445l-53.6,30.949a4.026,4.026,0,1,0-4.307,6.22v65.4l57.817-33.38v65.575l59.872,34.568v-69.136L200,1505.7l55.8-32.213,53.942,31.141a4.027,4.027,0,1,0,4.905-2.832V1372.757l56.79-32.789,55.762,32.195-56.276,32.493-.514.294v66.763l-1.027.594,1.027.592v65.577l-57.3,33.084-.514.294v69.132l59.359-34.27.514-.3v-65.571l55.762,32.195v1.186l1.027-.592,58.845,33.972v-64.656a4,4,0,0,0,1.837-1.048l53.925,31.132v67.93l57.817-33.38v.016l59.359-34.27.514-.3v-65.573l52.912,30.551a3.955,3.955,0,0,0-.156,1.052,4.034,4.034,0,1,0,5.061-3.884Zm-231.27-195.8,55.763-32.195v64.385L489.927,1402.7a4.015,4.015,0,0,0-1.835-1.044ZM199.005,972.195,254.768,940v64.387l-55.762,32.194ZM-32.217,1576.312a4.022,4.022,0,0,0,3-3.886,3.941,3.941,0,0,0-.156-1.05l52.912-30.551v64.387l-55.76,32.194Zm-4.907-4.936a4.039,4.039,0,0,0-.156,1.05,4.023,4.023,0,0,0,3.008,3.886V1637.4l-55.762-32.193v-64.385Zm2.762-66.3-55.764,32.194v-64.387l55.764-32.2Zm57.906-33.366-55.76,32.193v-64.383l55.76-32.192Zm0-66.758-55.76,32.192v-64.383l55.76-32.193Zm0-66.756-55.76,32.192v-61.093a4.022,4.022,0,0,0,3-3.886,4.039,4.039,0,0,0-.154-1.05l52.91-30.548Zm59.829,34.566,53.925-31.132a4.04,4.04,0,0,0,1.835,1.046v62.277l-55.76,32.192ZM-32.264,841.968a4.042,4.042,0,0,0,1.837-1.046L23.5,872.056v64.389l-55.762-32.2Zm-56.79,96.257,55.762-32.194,55.762,32.194-54.735,31.6v0l-1.027.594-1.027-.594v0Zm-1.027,67.356,55.762-32.195v64.387l-55.762,32.195Zm55.719,232.474-55.764,32.193v-64.383l55.764-32.192Zm.043-67.944-55.762-32.195v-64.389l55.762,32.2ZM20.648,1072.8l-53.938,31.144-55.765-32.2,25.331-14.625,30.431-17.569,53.94,31.142a3.622,3.622,0,0,0,0,2.1Zm2.85-4.936a4.015,4.015,0,0,0-1.835,1.044l-53.927-31.134V973.386L23.5,1005.581Zm57.819,371.625v1.213l.043-.027V1503.9L25.6,1471.705v-64.383Zm0-201.44-55.764,32.192v-64.383l55.764-32.193Zm0-67.944-55.764-32.193v-62.279a4.028,4.028,0,0,0,1.835-1.046l53.929,31.134Zm2.055-197.91L139.133,940v64.387l-55.76,32.194Zm55.76,298.046-55.76-32.192v-64.383l27.879,16.1,27.881,16.1Zm0-66.758-27.881-16.1-27.879-16.1v-64.381L111.252,1123l27.881,16.1Zm0-66.756-27.881-16.1-27.879-16.1v-64.385l55.76,32.193ZM196.95,1168a3.949,3.949,0,0,0-2.85,4.936l-52.912,30.547V1139.1l31.866-18.4,23.9-13.8Zm0-63.466-18.242,10.533-37.521,21.661v-64.387l55.762-32.195Zm-.09,400.538L141.1,1537.266v-61.839a4.025,4.025,0,0,0,3.006-3.886c0-.129-.027-.251-.037-.376l52.793-30.483Zm57.817,34.568v64.387l-55.762-32.194v-64.387Zm.09-67.934L199.005,1503.9v-64.383l55.762-32.192Zm0-66.758-55.762,32.192v-64.383l55.762-32.193Zm0-66.759-1.027.592,0,0-54.737,31.6V1306l53.927-31.134a4.022,4.022,0,0,0,1.835,1.046Zm0-70.046a4.006,4.006,0,0,0-1.835,1.044l-53.927-31.134V1175.77a4.028,4.028,0,0,0,1.835-1.046l53.927,31.136Zm114.607-62.879-55.76,32.193-55.765-32.193,27.349-15.792,28.413-16.4ZM256.823,1139.1l55.762-32.2v64.389l-55.762,32.194Zm0,67.948,55.762,32.194v64.387l-52.912-30.549a3.94,3.94,0,0,0,.156-1.05,4.023,4.023,0,0,0-3.006-3.886Zm0,68.869a4.014,4.014,0,0,0,1.837-1.048l52.894,30.538L256.823,1337Zm55.762,225.879a4.048,4.048,0,0,0-1.835,1.046l-53.927-31.132v-64.38l55.762,32.192Zm0-64.652-55.762-32.192V1340.56l55.762,32.2Zm1.03-66.162-55.765-32.2,55.758-32.192,1.032.6v0l54.735,31.6ZM370.4,1605.23l-55.762,32.193V1573.04l55.762-32.193Zm3.082-266.45,55.762-32.195,55.762,32.195-54.735,31.6v0l-1.027.594-1.027-.594v0Zm-1.027,67.358,55.762-32.194v64.387l-55.762,32.195Zm55.762,164.53-55.762-32.194v-64.389l55.762,32.195Zm-54.733-98.363,25.329-14.625,30.429-17.57,55.762,32.194-25.329,14.625L429.247,1504.5Zm56.788,35.16,52.912,30.551a3.614,3.614,0,0,0,0,2.1l-52.912,30.551Zm55.762,96.584-54.735-31.6,52.9-30.542a4.006,4.006,0,0,0,1.835,1.046Zm0-68.867a4.027,4.027,0,0,0-1.835,1.046l-52.9-30.543,54.735-31.6Zm0-64.656-55.762-32.195v-64.387l52.912,30.548a3.947,3.947,0,0,0,2.85,4.934Zm0-68.869a4.017,4.017,0,0,0-1.837,1.046l-52.9-30.54,54.735-31.6Zm57.817,169.005-52.91-30.548a3.953,3.953,0,0,0-2.852-4.932v-61.1l55.763,32.193Zm57.817,34.549L545.909,1637.4v-64.368l55.762-32.195Zm0-66.758-55.762,32.2v-64.372l55.762-32.193Zm57.817,33.395-55.763,32.192v-64.385l55.763-32.193Zm57.817-36.666a4.007,4.007,0,0,0-1.833,1.044l-53.929-31.137V1440.7l55.762,32.195Z" transform="translate(93.164 -834.048)" opacity="0.04" fill="url(#linear-gradient)"/>
</svg>
